<svg xmlns="http://www.w3.org/2000/svg" width="32" height="32" viewBox="0 0 32 32" fill="none">
  <path d="M4 17.3333C4 20.5159 5.26428 23.5681 7.51472 25.8186C9.76515 28.069 12.8174 29.3333 16 29.3333C16 26.1507 14.7357 23.0984 12.4853 20.848C10.2348 18.5976 7.1826 17.3333 4 17.3333ZM7.25333 20.5866C9.8 21.5333 11.8 23.5333 12.7467 26.08C11.4896 25.6136 10.348 24.8814 9.39996 23.9333C8.45189 22.9853 7.71967 21.8437 7.25333 20.5866ZM16 29.3333C19.1826 29.3333 22.2348 28.069 24.4853 25.8186C26.7357 23.5681 28 20.5159 28 17.3333C24.8174 17.3333 21.7652 18.5976 19.5147 20.848C17.2643 23.0984 16 26.1507 16 29.3333ZM19.2267 26.0933C19.6836 24.8198 20.4166 23.6633 21.3733 22.7066C22.33 21.7499 23.4865 21.0169 24.76 20.56C24.2908 21.8265 23.5534 22.9766 22.5984 23.9317C21.6433 24.8867 20.4932 25.6241 19.2267 26.0933ZM16 18.6666C18.1217 18.6666 20.1566 17.8238 21.6569 16.3235C23.1571 14.8232 24 12.7884 24 10.6666V3.99996C23.0159 3.99162 22.039 4.16801 21.12 4.51996C20.3867 4.82663 19.7333 5.27996 19.1867 5.85329L16 2.66663L12.8133 5.85329C12.2667 5.27996 11.6133 4.82663 10.88 4.51996C9.96098 4.16801 8.98408 3.99162 8 3.99996V10.6666C8 12.7884 8.84285 14.8232 10.3431 16.3235C11.8434 17.8238 13.8783 18.6666 16 18.6666ZM10.6667 7.47996L12.76 9.67996L16 6.43996L19.24 9.67996L21.3333 7.47996V10.6666C21.3333 12.0811 20.7714 13.4377 19.7712 14.4379C18.771 15.4381 17.4145 16 16 16C14.5855 16 13.229 15.4381 12.2288 14.4379C11.2286 13.4377 10.6667 12.0811 10.6667 10.6666V7.47996Z" fill="black"/>
</svg>